<svg id="fingerprint_black_24dp" xmlns="http://www.w3.org/2000/svg" width="15.118" height="15.118" viewBox="0 0 15.118 15.118">
  <path id="Path_892" data-name="Path 892" d="M0,0H15.118V15.118H0Z" fill="none"/>
  <path id="Path_893" data-name="Path 893" d="M12.328,3.556a.293.293,0,0,1-.145-.038,7.374,7.374,0,0,0-7.017,0,.316.316,0,1,1-.3-.554,8.015,8.015,0,0,1,7.61-.006.319.319,0,0,1-.145.6ZM3.314,6.863a.328.328,0,0,1-.183-.057.314.314,0,0,1-.076-.441,6.513,6.513,0,0,1,2.362-2.06A7.272,7.272,0,0,1,11.912,4.3a6.538,6.538,0,0,1,2.362,2.047.316.316,0,0,1-.517.365A5.914,5.914,0,0,0,11.623,4.86,6.638,6.638,0,0,0,5.7,4.866,5.976,5.976,0,0,0,3.559,6.731a.275.275,0,0,1-.246.132Zm3.937,7.6a.3.3,0,0,1-.22-.094,6.368,6.368,0,0,1-1.266-1.663A5.592,5.592,0,0,1,5.1,9.975a3.489,3.489,0,0,1,3.565-3.4,3.489,3.489,0,0,1,3.565,3.4.315.315,0,0,1-.63,0A2.858,2.858,0,0,0,8.668,7.21,2.858,2.858,0,0,0,5.733,9.975,4.935,4.935,0,0,0,6.319,12.4a5.963,5.963,0,0,0,1.165,1.524.323.323,0,0,1,0,.447.346.346,0,0,1-.233.094ZM11.768,13.3a3.392,3.392,0,0,1-1.953-.561,3.354,3.354,0,0,1-1.5-2.765.315.315,0,1,1,.63,0,2.709,2.709,0,0,0,1.222,2.243,2.762,2.762,0,0,0,1.6.447,4.163,4.163,0,0,0,.655-.063.316.316,0,0,1,.107.624,4.3,4.3,0,0,1-.762.076ZM10.5,14.6a.369.369,0,0,1-.082-.013,4.915,4.915,0,0,1-2.343-1.323A4.6,4.6,0,0,1,6.709,9.975a1.942,1.942,0,0,1,3.88,0,1.313,1.313,0,0,0,2.621,0,4.443,4.443,0,0,0-4.567-4.3A4.6,4.6,0,0,0,4.479,8.211a4.052,4.052,0,0,0-.372,1.764,6.26,6.26,0,0,0,.422,2.274.307.307,0,0,1-.183.4.312.312,0,0,1-.4-.183,7.018,7.018,0,0,1-.46-2.495,4.733,4.733,0,0,1,.428-2.041,5.228,5.228,0,0,1,4.731-2.9,5.074,5.074,0,0,1,5.2,4.932,1.942,1.942,0,0,1-3.88,0,1.313,1.313,0,0,0-2.621,0A3.967,3.967,0,0,0,8.517,12.81a4.283,4.283,0,0,0,2.06,1.165.313.313,0,0,1,.22.384.307.307,0,0,1-.3.239Z" transform="translate(-1.109 -0.74)" fill="#757998"/>
</svg>
