<svg id="Icon_Lens" data-name="Icon/Lens" xmlns="http://www.w3.org/2000/svg" xmlns:xlink="http://www.w3.org/1999/xlink" width="18.011" height="18.011" viewBox="0 0 18.011 18.011">
  <defs>
    <clipPath id="clip-path">
      <path id="Mask" d="M9.137,11.181,6.861,8.337a4.514,4.514,0,1,1,.929-.761l2.284,2.855a.6.6,0,1,1-.937.75ZM1.2,4.5A3.3,3.3,0,1,0,4.5,1.2,3.305,3.305,0,0,0,1.2,4.5Z" transform="translate(0 0)" fill="#757998"/>
    </clipPath>
  </defs>
  <path id="Grid" d="M0,0H18.011V18.011H0Z" fill="none"/>
  <path id="Mask-2" data-name="Mask" d="M9.137,11.181,6.861,8.337a4.514,4.514,0,1,1,.929-.761l2.284,2.855a.6.6,0,1,1-.937.75ZM1.2,4.5A3.3,3.3,0,1,0,4.5,1.2,3.305,3.305,0,0,0,1.2,4.5Z" transform="translate(3.602 3.002)" fill="#757998"/>
  <g id="Icon_Lens-2" data-name="Icon/Lens" transform="translate(3.602 3.002)" clip-path="url(#clip-path)">
    <g id="Color" transform="translate(-3.602 -3.002)">
      <path id="Icon_Fill_Dark" data-name="Icon/🖌 Fill/Dark" d="M0,0H18.011V18.011H0Z" fill="#757998"/>
    </g>
  </g>
</svg>
